<svg width="159" height="134" viewBox="0 0 159 134" fill="none" xmlns="http://www.w3.org/2000/svg"><path d="M51.665 41.14 28.71.927h45.907L51.665 41.141ZM82.3 132.535l-26.066-88.35h46.917l-20.852 88.35ZM79.998 133.752.788 44.184h51.486l27.724 89.568ZM84.872 133.145l73.117-88.96h-51.182l-21.935 88.96ZM107.721 41.14 84.767.927h45.908l-22.954 40.215ZM79.485.937l23.267 40.337-46.567-.019L79.485.937ZM134.932.937l23.267 40.337-46.567-.019 23.3-40.318ZM24.038.937l23.267 40.337L.74 41.255 24.039.937Z" fill="#fff"/></svg>