<svg width="24" height="24" viewBox="0 0 24 24" fill="none" xmlns="http://www.w3.org/2000/svg">
<g id="bag-check-svgrepo-com 1">
<path id="Vector" d="M3.7423 20.5545C4.94192 22 7.17462 22 11.64 22H12.3612C16.8266 22 19.0593 22 20.2589 20.5545M3.7423 20.5545C2.54267 19.1091 2.95413 16.9146 3.77706 12.5257C4.36228 9.40452 4.65489 7.84393 5.76579 6.92196M20.2589 20.5545C21.4585 19.1091 21.0471 16.9146 20.2242 12.5257C19.6389 9.40452 19.3463 7.84393 18.2354 6.92196M18.2354 6.92196C17.1245 6 15.5368 6 12.3612 6H11.64C8.46447 6 6.87669 6 5.76579 6.92196" stroke="#8D00FC" stroke-width="2"/>
<path id="Vector_2" opacity="0.5" d="M10 14.3C10.5207 14.7686 10.8126 15.0314 11.3333 15.5L14 12.5" stroke="#8D00FC" stroke-width="2" stroke-linecap="round" stroke-linejoin="round"/>
<path id="Vector_3" opacity="0.5" d="M9 6V5C9 3.34315 10.3431 2 12 2C13.6569 2 15 3.34315 15 5V6" stroke="#8D00FC" stroke-width="2" stroke-linecap="round"/>
</g>
</svg>
