<svg width="22" height="24" viewBox="0 0 22 24" fill="none" xmlns="http://www.w3.org/2000/svg">
<g id="Group 33505">
<path id="Union" fill-rule="evenodd" clip-rule="evenodd" d="M11 1.5C6.85181 1.5 4.77774 4.42507 4.77774 8.03333V10.0556C4.77774 11.3442 3.61856 12.4087 2.68864 13.3009C2.08942 13.8757 1.66663 14.6911 1.66663 15.6556C1.66663 16.8583 2.59522 17.8333 3.7407 17.8333H18.2592C19.4047 17.8333 20.3333 16.8583 20.3333 15.6556C20.3333 14.6911 19.9105 13.8757 19.3113 13.3009C18.3814 12.4087 17.2222 11.3442 17.2222 10.0556V8.03333C17.2222 4.42507 15.1481 1.5 11 1.5Z" stroke="white" stroke-width="2"/>
<path id="Vector" d="M13.3333 21.3335C13.0962 21.6871 12.7558 21.9806 12.3463 22.1846C11.9368 22.3886 11.4725 22.496 11 22.496C10.5274 22.496 10.0631 22.3886 9.6536 22.1846C9.2441 21.9806 8.90375 21.6871 8.66663 21.3335" stroke="white" stroke-width="2" stroke-linecap="round" stroke-linejoin="round"/>
</g>
</svg>
