<svg width="32" height="32" viewBox="0 0 32 32" fill="none" xmlns="http://www.w3.org/2000/svg">
    <path d="M6.49962 4.33236H31L27.6667 15.999H8.29452M29.3333 22.6657H9.33333L6 0.999023H1M11 29.3324C11 30.2529 10.2538 30.999 9.33333 30.999C8.41287 30.999 7.66667 30.2529 7.66667 29.3324C7.66667 28.4119 8.41287 27.6657 9.33333 27.6657C10.2538 27.6657 11 28.4119 11 29.3324ZM29.3333 29.3324C29.3333 30.2529 28.5872 30.999 27.6667 30.999C26.7462 30.999 26 30.2529 26 29.3324C26 28.4119 26.7462 27.6657 27.6667 27.6657C28.5872 27.6657 29.3333 28.4119 29.3333 29.3324Z" stroke="white" stroke-width="2" stroke-linecap="round" stroke-linejoin="round"/>
</svg>
