<svg width="24" height="23" viewBox="0 0 24 23" fill="none" xmlns="http://www.w3.org/2000/svg"><path d="m8.64 13.926-1.329 2.77h13.287" stroke="#fff" stroke-width="2" stroke-linecap="round" stroke-linejoin="round"/><path d="M19.602 13.926H8.972L5.327 5.001h17.597l-3.322 8.925Z" fill="#fff"/><path d="m1 1 3.322 1.539L5.327 5m0 0 3.645 8.925h10.63l3.322-8.925H5.326Z" stroke="#fff" stroke-width="2" stroke-linecap="round" stroke-linejoin="round"/><path d="M11.129 20.969c.971-.39 1.497-1.48 1.024-2.492-.472-1.012-1.69-1.404-2.661-1.015-.972.389-1.497 1.48-1.025 2.492.473 1.012 1.69 1.404 2.662 1.015ZM19.1 20.969c.972-.39 1.498-1.48 1.025-2.492-.472-1.012-1.69-1.404-2.661-1.015-.972.389-1.497 1.48-1.025 2.492.473 1.012 1.69 1.404 2.662 1.015Z" stroke="#fff" stroke-width="2"/></svg>