<svg width="88" height="74" viewBox="0 0 88 74" fill="none" xmlns="http://www.w3.org/2000/svg"><path d="M16.5 71h54" stroke="#fff" stroke-width="6" stroke-linecap="round" stroke-linejoin="round"/><path fill-rule="evenodd" clip-rule="evenodd" d="M43.99 18.5a3 3 0 0 1 2.399 1.185L63.592 42.32l19.117-14.227a3 3 0 0 1 4.58 3.514l-12.5 31.5A3 3 0 0 1 72 65H15.5a3 3 0 0 1-2.788-1.894l-12.5-31.5a3 3 0 0 1 4.427-3.619l20.647 13.466L41.6 19.7a3 3 0 0 1 2.39-1.2Zm.026 7.979L28.4 47.3a3 3 0 0 1-4.039.713l-15.089-9.84L17.537 59h52.426l7.851-19.785-13.023 9.692a3 3 0 0 1-4.18-.592L44.017 26.48Z" fill="#fff"/><path d="m16.81 27.763 3.155-7.493a1 1 0 0 1 1.577-.367l5.841 5.062a1 1 0 0 1 .217 1.246l-3.553 6.318a1 1 0 0 1-1.453.323l-5.443-3.887a1 1 0 0 1-.34-1.202ZM61.059 26.442l5.46-5.46a1 1 0 0 1 1.602.259l3.465 6.93a1 1 0 0 1-.38 1.305l-5.858 3.515a1 1 0 0 1-1.366-.333l-3.068-4.985a1 1 0 0 1 .145-1.231ZM78.525 4.464a.5.5 0 0 1 .95 0l1.321 4.064a.5.5 0 0 0 .476.345h4.273a.5.5 0 0 1 .294.905l-3.457 2.512a.5.5 0 0 0-.182.559l1.32 4.064a.5.5 0 0 1-.769.56l-3.457-2.513a.5.5 0 0 0-.588 0l-3.457 2.512a.5.5 0 0 1-.77-.559L75.8 12.85a.5.5 0 0 0-.181-.56L72.16 9.779a.5.5 0 0 1 .294-.905h4.274a.5.5 0 0 0 .475-.345l1.32-4.064ZM59.525.464a.5.5 0 0 1 .95 0l.648 1.99a.5.5 0 0 0 .475.346h2.094a.5.5 0 0 1 .294.905l-1.694 1.23a.5.5 0 0 0-.181.56l.647 1.991a.5.5 0 0 1-.77.56l-1.694-1.232a.5.5 0 0 0-.588 0l-1.694 1.231a.5.5 0 0 1-.769-.559l.647-1.991a.5.5 0 0 0-.182-.56l-1.694-1.23a.5.5 0 0 1 .294-.905h2.094a.5.5 0 0 0 .476-.345l.647-1.991Z" fill="#fff"/><path fill-rule="evenodd" clip-rule="evenodd" d="M3 30.5 15.5 62H72l12.5-31.5-21.5 16-19-25-18 24-23-15ZM43.5 34l-7 8.571L43.5 54l7-11.429-7-8.571Z" fill="#fff"/></svg>