<svg width="104" height="74" viewBox="0 0 104 74" fill="none" xmlns="http://www.w3.org/2000/svg">
    <path fill-rule="evenodd" clip-rule="evenodd" d="M7.58658 31.8936C8.80126 31.9091 10.0806 32.1916 11.3545 32.8042C11.3545 32.8042 11.3545 32.8042 11.3557 32.8042L33.3756 43.3863C34.4196 40.9747 36.9297 39.3097 39.7573 39.3909C39.7587 39.3909 39.7602 39.3909 39.7616 39.3909L52.4093 39.7774C55.5086 39.7774 57.8479 39.0322 60.8047 38.1771C63.7694 37.3199 67.2956 36.3922 72.1696 36.3922C76.186 36.3922 81.598 37.6054 86.0059 39.0988V36.3448C86.0059 36.0371 86.0672 35.7296 86.185 35.4453C86.3027 35.1611 86.477 34.9003 86.6946 34.6827C86.9121 34.4651 87.1729 34.2909 87.4571 34.1732C87.7414 34.0554 88.049 33.9941 88.3566 33.9941H101.099C101.407 33.9941 101.715 34.0552 101.999 34.173C102.283 34.2908 102.544 34.465 102.762 34.6826C102.979 34.9002 103.154 35.1609 103.271 35.4452C103.389 35.7295 103.45 36.0371 103.45 36.3448V45.9489V71.3168C103.45 71.6245 103.389 71.9321 103.271 72.2165C103.154 72.5007 102.979 72.7615 102.762 72.979C102.544 73.1966 102.283 73.3708 101.999 73.4886C101.715 73.6063 101.407 73.6675 101.099 73.6675H88.3566C88.049 73.6675 87.7414 73.6064 87.4571 73.4885C87.1729 73.3707 86.9121 73.1965 86.6946 72.9789C86.477 72.7613 86.3027 72.5006 86.185 72.2164C86.0672 71.9321 86.0059 71.6244 86.0059 71.3168V68.3078C70.5267 65.5687 61.3216 70.2349 47.3777 70.2349C47.3764 70.2349 47.3752 70.2349 47.3739 70.2349C44.4915 70.2349 41.4675 68.8238 37.6843 66.8609C33.9012 64.8979 29.5738 62.2632 25.1958 59.4366C16.4414 53.7845 7.47338 47.3466 2.803 44.1827C2.80182 44.1815 2.80076 44.1815 2.7997 44.1827C1.19887 43.1007 0.238578 41.3981 0.0434396 39.7108C-0.151816 38.0224 0.3211 36.3666 1.26199 34.9996C2.55566 33.12 4.91437 31.861 7.58705 31.8951L7.58658 31.8936ZM7.2659 36.4708C6.20721 36.4555 5.57748 37.02 5.13454 37.6635C4.79705 38.1538 4.66268 38.7301 4.71347 39.1694C4.76437 39.6085 4.90202 39.9283 5.43277 40.2865C5.43395 40.2877 5.43524 40.2877 5.43642 40.2865C10.2417 43.5417 19.1277 49.9211 27.7459 55.4852C32.0549 58.2673 36.2942 60.8411 39.8493 62.6858C43.404 64.5302 46.489 65.5303 47.3805 65.532C59.9999 65.532 69.8634 60.88 86.0051 63.5359V61.5114C86.0012 61.2012 86.0595 60.8903 86.1756 60.6027C86.2916 60.315 86.4652 60.0508 86.6833 59.83C86.9012 59.6094 87.1634 59.4325 87.4495 59.3128C87.7357 59.1932 88.0458 59.1311 88.3559 59.1311C88.6662 59.1311 88.9763 59.1934 89.2625 59.3128C89.5486 59.4325 89.8108 59.6094 90.0287 59.83C90.2468 60.0508 90.4204 60.315 90.5364 60.6027C90.6524 60.8903 90.7108 61.2012 90.7069 61.5114V68.9646H91.8828V38.694H90.7069V46.1354C90.7108 46.4455 90.6524 46.7565 90.5364 47.0441C90.4204 47.3318 90.2468 47.596 90.0287 47.8168C89.8108 48.0374 89.5486 48.2144 89.2625 48.334C88.9763 48.4536 88.6662 48.5158 88.3559 48.5158C88.0458 48.5158 87.7357 48.4535 87.4495 48.334C87.1634 48.2144 86.9012 48.0374 86.6833 47.8168C86.4652 47.596 86.2916 47.3318 86.1756 47.0441C86.0595 46.7565 86.0012 46.4455 86.0051 46.1354V44.0969C81.8545 42.5654 75.5006 41.0921 72.1688 41.0921C67.8735 41.0921 64.9994 41.8571 62.1099 42.6926C59.2203 43.5282 56.2559 44.4776 52.3846 44.4776C52.3607 44.4776 52.3368 44.4776 52.3129 44.4764L39.6216 44.0885C38.43 44.0544 37.5612 44.9926 37.5612 45.8647C37.5612 46.7558 38.3876 47.5883 39.7788 47.6415C39.7823 47.6415 39.786 47.6427 39.7895 47.6427L63.9349 48.6771C64.2453 48.6889 64.5539 48.7571 64.837 48.885C65.1199 49.0129 65.3771 49.1976 65.5889 49.4248C65.8006 49.6522 65.9666 49.9218 66.0741 50.2132C66.1817 50.5045 66.2307 50.8175 66.2174 51.1277C66.2041 51.4381 66.1285 51.7455 65.9965 52.0267C65.8645 52.3078 65.6761 52.5623 65.4458 52.7707C65.2155 52.9791 64.9434 53.1411 64.6506 53.2444C64.3576 53.3479 64.0441 53.3922 63.734 53.3744L39.5992 52.3403H39.5886C37.0598 52.2392 34.6901 50.8332 33.557 48.6885L9.3179 37.0405C8.49303 36.6438 7.81957 36.4773 7.26507 36.4697L7.2659 36.4708ZM98.7482 38.6962H96.5849V68.9669H98.7482V45.9496V38.6962Z" fill="white"/>
    <path fill-rule="evenodd" clip-rule="evenodd" d="M45.4848 14.6946C45.7923 14.6993 46.0989 14.7649 46.3812 14.8868C46.6636 15.0087 46.9216 15.1867 47.1359 15.4074C47.3502 15.628 47.5205 15.8912 47.6342 16.1771C47.7478 16.4629 47.8046 16.7712 47.8002 17.0787V22.6863H53.4075C53.7186 22.6805 54.0309 22.7378 54.3199 22.8531C54.6091 22.9683 54.8749 23.1417 55.097 23.3598C55.319 23.5779 55.497 23.8406 55.6174 24.1276C55.7379 24.4147 55.8004 24.7258 55.8004 25.037C55.8004 25.3483 55.7379 25.6594 55.6174 25.9464C55.497 26.2334 55.319 26.4961 55.097 26.7142C54.8749 26.9323 54.6091 27.1057 54.3199 27.2209C54.0309 27.3362 53.7186 27.3933 53.4075 27.3877H47.8002V32.9954C47.8041 33.3055 47.7458 33.6164 47.6298 33.9041C47.5137 34.1918 47.3401 34.456 47.122 34.6767C46.9041 34.8974 46.642 35.0743 46.3558 35.194C46.0696 35.3135 45.7595 35.3757 45.4493 35.3757C45.1392 35.3757 44.8291 35.3134 44.5428 35.194C44.2567 35.0743 43.9945 34.8974 43.7766 34.6767C43.5585 34.456 43.3849 34.1918 43.2689 33.9041C43.1529 33.6164 43.0946 33.3055 43.0984 32.9954V27.3877H37.4908C37.1796 27.3936 36.8674 27.3362 36.5784 27.2209C36.2892 27.1057 36.0234 26.9323 35.8013 26.7142C35.5793 26.4961 35.4013 26.2334 35.2809 25.9464C35.1604 25.6594 35.0979 25.3483 35.0979 25.037C35.0979 24.7258 35.1604 24.4147 35.2809 24.1276C35.4013 23.8406 35.5793 23.5779 35.8013 23.3598C36.0234 23.1417 36.2892 22.9683 36.5784 22.8531C36.8674 22.7378 37.1796 22.6808 37.4908 22.6863H43.0984V17.0787C43.094 16.7652 43.1531 16.451 43.271 16.1606C43.389 15.8702 43.5658 15.6038 43.7875 15.3822C44.0094 15.1606 44.276 14.984 44.5664 14.8664C44.857 14.7486 45.1714 14.6898 45.4848 14.6946Z" fill="white"/>
    <path fill-rule="evenodd" clip-rule="evenodd" d="M35.8693 0.000274106C36.1768 0.00497622 36.4834 0.0705863 36.7658 0.192489C37.0481 0.314391 37.3061 0.492378 37.5204 0.713025C37.7347 0.933672 37.9051 1.19686 38.0187 1.48274C38.1323 1.76852 38.1891 2.07682 38.1847 2.38434V4.63H40.43C40.7412 4.62412 41.0534 4.68149 41.3424 4.79681C41.6316 4.91202 41.8974 5.08537 42.1195 5.30343C42.3415 5.52161 42.5195 5.78422 42.6399 6.07128C42.7604 6.35835 42.8229 6.66942 42.8229 6.9807C42.8229 7.29198 42.7604 7.60305 42.6399 7.89011C42.5195 8.17706 42.3415 8.43976 42.1195 8.65782C41.8974 8.876 41.6316 9.04938 41.3424 9.16458C41.0534 9.2799 40.7412 9.33692 40.43 9.3314H38.1847V11.5652C38.1886 11.8753 38.1303 12.1863 38.0143 12.4739C37.8983 12.7616 37.7246 13.0259 37.5066 13.2467C37.2886 13.4673 37.0265 13.6441 36.7404 13.7638C36.4541 13.8834 36.144 13.9456 35.8338 13.9456C35.5237 13.9456 35.2136 13.8834 34.9273 13.7638C34.6412 13.6441 34.3791 13.4673 34.1611 13.2467C33.9431 13.0259 33.7694 12.7616 33.6534 12.4739C33.5374 12.1863 33.4791 11.8753 33.483 11.5652V9.3314H31.2491C30.9379 9.33728 30.6257 9.2799 30.3367 9.16458C30.0475 9.04938 29.7817 8.876 29.5596 8.65782C29.3376 8.43976 29.1596 8.17706 29.0392 7.89011C28.9187 7.60305 28.8562 7.29198 28.8562 6.9807C28.8562 6.66942 28.9187 6.35835 29.0392 6.07128C29.1596 5.78422 29.3376 5.52161 29.5596 5.30343C29.7817 5.08537 30.0475 4.91202 30.3367 4.79681C30.6257 4.68149 30.9379 4.62447 31.2491 4.63H33.483V2.38434C33.4785 2.07082 33.5376 1.75667 33.6555 1.46631C33.7736 1.17584 33.9504 0.909429 34.1721 0.687841C34.3939 0.466254 34.6605 0.289711 34.951 0.17204C35.2416 0.0542523 35.5559 -0.00454557 35.8693 0.000274106Z" fill="white"/>
    <path fill-rule="evenodd" clip-rule="evenodd" d="M55.1007 0.000274106C55.4083 0.00497622 55.7148 0.0705863 55.9972 0.192489C56.2796 0.314391 56.5376 0.492378 56.7519 0.713025C56.9662 0.933672 57.1365 1.19686 57.2502 1.48274C57.3637 1.76852 57.4205 2.07682 57.4162 2.38434V4.63H59.6614C59.9726 4.62412 60.2848 4.68149 60.5739 4.79681C60.8631 4.91202 61.1289 5.08537 61.3509 5.30343C61.573 5.52161 61.7509 5.78422 61.8713 6.07128C61.9918 6.35835 62.0543 6.66942 62.0543 6.9807C62.0543 7.29198 61.9918 7.60305 61.8713 7.89011C61.7509 8.17706 61.573 8.43976 61.3509 8.65782C61.1289 8.876 60.8631 9.04938 60.5739 9.16458C60.2848 9.2799 59.9726 9.33692 59.6614 9.3314H57.4162V11.5652C57.4201 11.8753 57.3618 12.1863 57.2457 12.4739C57.1297 12.7616 56.9561 13.0259 56.738 13.2467C56.5201 13.4673 56.2579 13.6441 55.9718 13.7638C55.6856 13.8834 55.3755 13.9456 55.0652 13.9456C54.7551 13.9456 54.445 13.8834 54.1588 13.7638C53.8727 13.6441 53.6105 13.4673 53.3926 13.2467C53.1745 13.0259 53.0009 12.7616 52.8849 12.4739C52.7688 12.1863 52.7105 11.8753 52.7144 11.5652V9.3314H50.4806C50.1694 9.33728 49.8572 9.2799 49.5681 9.16458C49.2789 9.04938 49.0131 8.876 48.7911 8.65782C48.569 8.43976 48.3911 8.17706 48.2707 7.89011C48.1502 7.60305 48.0876 7.29198 48.0876 6.9807C48.0876 6.66942 48.1502 6.35835 48.2707 6.07128C48.3911 5.78422 48.569 5.52161 48.7911 5.30343C49.0131 5.08537 49.2789 4.91202 49.5681 4.79681C49.8572 4.68149 50.1694 4.62447 50.4806 4.63H52.7144V2.38434C52.7099 2.07082 52.7691 1.75667 52.887 1.46631C53.005 1.17584 53.1818 0.909429 53.4035 0.687841C53.6253 0.466254 53.8919 0.289711 54.1824 0.17204C54.473 0.0542523 54.7873 -0.00454557 55.1007 0.000274106Z" fill="white"/>
</svg>