<svg width="33" height="33" viewBox="0 0 33 33" fill="none" xmlns="http://www.w3.org/2000/svg"><path d="M16.5 20.593a4.091 4.091 0 1 0 0-8.183 4.091 4.091 0 0 0 0 8.183Z" fill="#fff"/><path d="M23.735 6.707H9.264a2.56 2.56 0 0 0-2.558 2.558v14.47a2.56 2.56 0 0 0 2.558 2.557h14.47a2.56 2.56 0 0 0 2.558-2.558V9.265a2.56 2.56 0 0 0-2.558-2.558ZM16.5 23.006a6.506 6.506 0 1 1 6.506-6.506 6.514 6.514 0 0 1-6.506 6.506ZM23.409 11a1.274 1.274 0 1 1 0-2.548 1.274 1.274 0 0 1 0 2.548Z" fill="#fff"/><path d="M25.906 0H7.094A7.092 7.092 0 0 0 0 7.094v18.812A7.093 7.093 0 0 0 7.094 33h18.812A7.093 7.093 0 0 0 33 25.906V7.094A7.092 7.092 0 0 0 25.906 0Zm2.801 23.735a4.978 4.978 0 0 1-4.973 4.972H9.266a4.978 4.978 0 0 1-4.972-4.973V9.266a4.978 4.978 0 0 1 4.972-4.972h14.47a4.978 4.978 0 0 1 4.972 4.972v14.47Z" fill="#fff"/></svg>