<svg width="25" height="24" viewBox="0 0 25 24" fill="none" xmlns="http://www.w3.org/2000/svg">
<g id="like-svgrepo-com 1">
<path id="Vector" d="M20.7378 12.0574L20.0323 16.1371L21.5103 16.3928L22.2159 12.313L20.7378 12.0574ZM13.7467 21.25H9.09805V22.75H13.7467V21.25ZM8.18668 20.4125L7.37452 11.0198L5.8801 11.149L6.69226 20.5417L8.18668 20.4125ZM20.0323 16.1371C19.5255 19.0677 16.883 21.25 13.7467 21.25V22.75C17.5729 22.75 20.8725 20.081 21.5103 16.3928L20.0323 16.1371ZM13.7565 5.10014L13.0938 9.14471L14.5741 9.38724L15.2368 5.34268L13.7565 5.10014ZM7.68943 10.2456L9.12817 9.00584L8.14899 7.86953L6.71025 9.10932L7.68943 10.2456ZM11.7457 4.97205L12.2214 3.1382L10.7695 2.76156L10.2938 4.59541L11.7457 4.97205ZM12.9399 2.7784L13.0849 2.82497L13.5436 1.39686L13.3987 1.35029L12.9399 2.7784ZM11.0252 6.81598C11.3371 6.23197 11.5794 5.61338 11.7457 4.97205L10.2938 4.59541C10.1574 5.12106 9.95869 5.62892 9.70212 6.10923L11.0252 6.81598ZM13.0849 2.82497C13.3913 2.92341 13.6089 3.16008 13.6804 3.43583L15.1323 3.0592C14.9269 2.26718 14.3207 1.64647 13.5436 1.39686L13.0849 2.82497ZM12.2214 3.1382C12.2564 3.00319 12.3539 2.87912 12.5015 2.80803L11.8503 1.45674C11.3183 1.71308 10.9187 2.18626 10.7695 2.76156L12.2214 3.1382ZM12.5015 2.80803C12.6362 2.7431 12.7948 2.7318 12.9399 2.7784L13.3987 1.35029C12.8889 1.18654 12.3329 1.22419 11.8503 1.45674L12.5015 2.80803ZM14.6554 10.9842H19.8365V9.48419H14.6554V10.9842ZM15.2368 5.34268C15.3613 4.58255 15.3257 3.80477 15.1323 3.0592L13.6804 3.43583C13.8214 3.97922 13.8473 4.54611 13.7565 5.10014L15.2368 5.34268ZM9.09805 21.25C8.62414 21.25 8.22771 20.887 8.18668 20.4125L6.69226 20.5417C6.80022 21.7902 7.8444 22.75 9.09805 22.75V21.25ZM9.12817 9.00584C9.80803 8.41999 10.5408 7.72266 11.0252 6.81598L9.70212 6.10923C9.35574 6.75766 8.8042 7.30492 8.14899 7.86953L9.12817 9.00584ZM22.2159 12.313C22.4712 10.8365 21.3358 9.48419 19.8365 9.48419V10.9842C20.4031 10.9842 20.8349 11.4959 20.7378 12.0574L22.2159 12.313ZM13.0938 9.14471C12.9361 10.1076 13.6783 10.9842 14.6554 10.9842V9.48419C14.6055 9.48419 14.5656 9.439 14.5741 9.38724L13.0938 9.14471ZM7.37452 11.0198C7.3491 10.7258 7.46645 10.4378 7.68943 10.2456L6.71025 9.10932C6.12192 9.6163 5.81319 10.3753 5.8801 11.149L7.37452 11.0198Z" fill="#8D00FC"/>
<path id="Vector_2" opacity="0.5" d="M3.5 10.2344L4.24721 10.1698C4.21261 9.76963 3.86893 9.46777 3.46767 9.48508C3.0664 9.5024 2.75 9.83275 2.75 10.2344H3.5ZM5.21881 21.4063L4.24721 10.1698L2.75279 10.299L3.72439 21.5355L5.21881 21.4063ZM4.25 21.5129V10.2344H2.75V21.5129H4.25ZM3.72439 21.5355C3.7112 21.383 3.83146 21.2502 3.98671 21.2502V22.7502C4.71268 22.7502 5.28122 22.1281 5.21881 21.4063L3.72439 21.5355ZM3.98671 21.2502C4.13292 21.2502 4.25 21.3686 4.25 21.5129H2.75C2.75 22.1954 3.30289 22.7502 3.98671 22.7502V21.2502Z" fill="#8D00FC"/>
</g>
</svg>
