<svg width="24" height="30" viewBox="0 0 24 30" fill="none" xmlns="http://www.w3.org/2000/svg">
<g id="Group 795">
<path id="Vector 369" d="M4 13C4 9.33333 4 2 12 2C20 2 20 9.33333 20 13" stroke="white" stroke-width="3"/>
<path id="Exclude" fill-rule="evenodd" clip-rule="evenodd" d="M3 12C1.34315 12 0 13.3431 0 15V27C0 28.6569 1.34315 30 3 30H21C22.6569 30 24 28.6569 24 27V15C24 13.3431 22.6569 12 21 12H3ZM15 19C15 19.898 14.6054 20.7038 13.9802 21.2536C13.9079 22.9436 13.5709 25 12 25C10.4291 25 10.0921 22.9436 10.0198 21.2536C9.39455 20.7038 9 19.898 9 19C9 17.3431 10.3431 16 12 16C13.6569 16 15 17.3431 15 19Z" fill="white"/>
</g>
</svg>
