<svg width="104" height="75" viewBox="0 0 104 75" fill="none" xmlns="http://www.w3.org/2000/svg">
    <path d="M79.8575 27.417C78.4431 27.417 77.1375 27.5258 75.832 27.7434V9.2478C75.832 3.15513 65.7138 0 55.8132 0C45.9126 0 35.7944 3.15513 35.7944 9.2478V23.1739C31.9865 20.8892 25.8938 19.8012 20.0188 19.8012C10.0094 19.8012 0 22.9563 0 29.049V48.9589C0 55.0516 10.1182 58.2067 20.0188 58.2067C27.1994 58.2067 34.4889 56.5748 37.9704 53.3109C41.4519 56.5748 48.7414 58.2067 55.922 58.2067C56.5748 58.2067 57.1188 58.098 57.7716 58.098C60.7091 67.5633 69.5217 74.2 79.8575 74.2C92.8044 74.2 103.249 63.6466 103.249 50.8085C103.249 37.9704 92.6956 27.417 79.8575 27.417ZM35.7944 48.9589C35.7944 50.6997 30.2457 54.0724 20.0188 54.0724C9.79179 54.0724 4.13431 50.6997 4.13431 48.9589V44.9334C7.94223 47.2182 14.0349 48.3062 19.91 48.3062C25.785 48.3062 31.8777 47.1094 35.6856 44.9334V48.9589H35.7944ZM35.7944 39.0584C35.7944 40.7991 30.2457 44.1718 20.0188 44.1718C9.79179 44.1718 4.13431 40.7991 4.13431 39.0584V35.0328C7.94223 37.3176 14.0349 38.4056 19.91 38.4056C25.785 38.4056 31.8777 37.2088 35.6856 35.0328V39.0584H35.7944ZM19.91 34.1625C9.68299 34.1625 4.13431 30.7897 4.13431 29.049C4.13431 27.3082 9.68299 24.0443 19.91 24.0443C30.1369 24.0443 35.6856 27.417 35.6856 29.1578C35.6856 30.8985 30.1369 34.1625 19.91 34.1625ZM55.8132 4.13431C66.0402 4.13431 71.5889 7.50704 71.5889 9.2478C71.5889 10.9886 66.0402 14.3613 55.8132 14.3613C45.5862 14.3613 39.9287 10.9886 39.9287 9.2478C39.9287 7.50704 45.5862 4.13431 55.8132 4.13431ZM39.9287 15.1229C43.7367 17.4076 49.8293 18.4956 55.7044 18.4956C61.6883 18.4956 67.6721 17.2988 71.4801 15.1229V19.1484C71.4801 20.8892 65.9314 24.2619 55.7044 24.2619C45.4774 24.2619 39.9287 20.8892 39.9287 19.1484V15.1229ZM39.9287 25.1323C43.7367 27.417 49.8293 28.505 55.7044 28.505C61.6883 28.505 67.6721 27.3082 71.4801 25.1323V28.9402C68.7601 29.9194 66.3666 31.4425 64.1906 33.2921C61.9059 33.8361 59.0771 34.2713 55.5956 34.2713C45.3686 34.2713 39.8199 30.8985 39.8199 29.1578V25.1323H39.9287ZM39.9287 35.0328C43.7367 37.3176 49.8293 38.4056 55.7044 38.4056C57.1188 38.4056 58.6419 38.2968 60.0563 38.188C58.8595 40.0375 57.9892 41.9959 57.3364 44.0631C56.7924 44.0631 56.2484 44.0631 55.7044 44.0631C45.4774 44.0631 39.9287 40.6903 39.9287 38.9496V35.0328ZM55.8132 54.0724C45.5862 54.0724 40.0375 50.6997 40.0375 48.9589V44.9334C43.8455 47.2182 49.9381 48.3062 55.8132 48.3062C56.0308 48.3062 56.3572 48.3062 56.5748 48.3062C56.466 49.0677 56.466 49.9381 56.466 50.8085C56.466 51.8965 56.5748 52.9845 56.6836 54.0724C56.3572 54.0724 56.1396 54.0724 55.8132 54.0724ZM79.8575 70.0657C69.3041 70.0657 60.6003 61.4707 60.6003 50.8085C60.6003 40.1463 69.1953 31.5513 79.8575 31.5513C90.5197 31.5513 99.1147 40.1463 99.1147 50.8085C99.1147 61.4707 90.4109 70.0657 79.8575 70.0657Z" fill="white"/>
    <path d="M82.251 39.0586H75.288C74.9616 39.0586 74.6352 39.385 74.6352 39.6026V49.8296H72.3504C72.024 49.8296 71.6976 50.156 71.6976 50.4823V53.0935C71.6976 53.4199 72.024 53.6375 72.3504 53.6375H74.6352V56.2486H72.3504C72.024 56.2486 71.6976 56.575 71.6976 56.7926V59.4038C71.6976 59.7301 72.024 60.0565 72.3504 60.0565H74.6352V62.9941C74.6352 63.3205 74.9616 63.5381 75.288 63.5381H77.8991C78.2255 63.5381 78.4431 63.2117 78.4431 62.9941V60.0565H83.9918C84.3182 60.0565 84.5358 59.7301 84.5358 59.4038V56.7926C84.5358 56.4662 84.3182 56.2486 83.9918 56.2486H78.4431V53.6375H82.4686C86.6029 53.6375 89.9756 50.156 89.758 46.0216C89.6492 42.2137 86.2765 39.0586 82.251 39.0586ZM82.4686 49.8296H78.4431V42.8665H82.4686C84.427 42.8665 85.9501 44.3897 85.9501 46.348C85.9501 48.3064 84.427 49.8296 82.4686 49.8296Z" fill="white"/>
</svg>