<svg width="20" height="20" viewBox="0 0 20 20" fill="none" xmlns="http://www.w3.org/2000/svg">
    <path d="M17.2787 16.2151L15.161 14.1049C16.309 12.6866 16.869 10.8819 16.7256 9.06284C16.5821 7.2438 15.7462 5.54915 14.39 4.32833C13.0339 3.10752 11.261 2.45362 9.43698 2.50148C7.61292 2.54933 5.87677 3.2953 4.58652 4.58554C3.29627 5.87579 2.55031 7.61194 2.50245 9.436C2.4546 11.2601 3.10849 13.0329 4.32931 14.3891C5.55013 15.7452 7.24478 16.5812 9.06382 16.7246C10.8829 16.868 12.6876 16.308 14.1059 15.16L16.2161 17.2777C16.2856 17.3478 16.3684 17.4035 16.4596 17.4415C16.5508 17.4795 16.6486 17.499 16.7474 17.499C16.8461 17.499 16.944 17.4795 17.0351 17.4415C17.1263 17.4035 17.2091 17.3478 17.2787 17.2777C17.3488 17.2081 17.4045 17.1253 17.4425 17.0342C17.4804 16.943 17.5 16.8452 17.5 16.7464C17.5 16.6476 17.4804 16.5498 17.4425 16.4586C17.4045 16.3674 17.3488 16.2847 17.2787 16.2151ZM4.02626 9.63754C4.02626 8.52754 4.35542 7.44247 4.9721 6.51954C5.58878 5.59661 6.46529 4.87727 7.4908 4.45249C8.5163 4.02772 9.64474 3.91657 10.7334 4.13312C11.8221 4.34967 12.8221 4.88419 13.607 5.66908C14.3919 6.45396 14.9264 7.45397 15.1429 8.54264C15.3595 9.63131 15.2483 10.7597 14.8236 11.7853C14.3988 12.8108 13.6794 13.6873 12.7565 14.304C11.8336 14.9206 10.7485 15.2498 9.63851 15.2498C8.15005 15.2498 6.72255 14.6585 5.67005 13.606C4.61755 12.5535 4.02626 11.126 4.02626 9.63754Z" fill="white"/>
</svg>
