<svg width="59" height="74" viewBox="0 0 59 74" fill="none" xmlns="http://www.w3.org/2000/svg">
    <path d="M36.3873 47.9423C37.3218 46.8209 37.1704 45.1546 36.049 44.2201C34.9276 43.2855 33.261 43.4372 32.3268 44.5583L27.5723 50.2637L25.6544 48.3458C24.6223 47.3138 22.9489 47.3138 21.9168 48.3458C20.8848 49.3779 20.8848 51.0513 21.9168 52.0834L25.8811 56.0476C26.4063 56.5728 27.1278 56.8527 27.8696 56.8191C28.6115 56.7855 29.305 56.4412 29.7801 55.8708L36.3873 47.9423Z" fill="white"/>
    <path fill-rule="evenodd" clip-rule="evenodd" d="M13.2144 50.2146C13.2144 41.4569 20.3139 34.3574 29.0715 34.3574C37.8291 34.3574 44.9286 41.4569 44.9286 50.2146C44.9286 58.9722 37.8291 66.0717 29.0715 66.0717C20.3139 66.0717 13.2144 58.9722 13.2144 50.2146ZM29.0715 39.6431C23.2332 39.6431 18.5001 44.3762 18.5001 50.2146C18.5001 56.0529 23.2332 60.786 29.0715 60.786C34.9098 60.786 39.6429 56.0529 39.6429 50.2146C39.6429 44.3762 34.9098 39.6431 29.0715 39.6431Z" fill="white"/>
    <path fill-rule="evenodd" clip-rule="evenodd" d="M7.92857 26.4286V21.1429C7.92857 9.46597 17.3945 0 29.0714 0C40.7484 0 50.2143 9.46597 50.2143 21.1429V26.4286C54.5932 26.4286 58.1429 29.9782 58.1429 34.3571V66.0714C58.1429 70.4504 54.5932 74 50.2143 74H7.92857C3.54975 74 0 70.4504 0 66.0714V34.3571C0 29.9782 3.54975 26.4286 7.92857 26.4286ZM7.92857 31.7143C6.46897 31.7143 5.28571 32.8975 5.28571 34.3571V66.0714C5.28571 67.5311 6.46897 68.7143 7.92857 68.7143H50.2143C51.6739 68.7143 52.8571 67.5311 52.8571 66.0714V34.3571C52.8571 32.8975 51.6739 31.7143 50.2143 31.7143H7.92857ZM44.9286 26.4286V21.1429C44.9286 12.3852 37.8291 5.28571 29.0714 5.28571C20.3138 5.28571 13.2143 12.3852 13.2143 21.1429V26.4286H44.9286Z" fill="white"/>
</svg>