<svg xmlns="http://www.w3.org/2000/svg" width="32" height="32" viewBox="0 0 32 32" fill="#EB00FF">
<path d="M14.8563 5.89826C15.3745 5.03717 16.6229 5.03717 17.1411 5.89826L19.6574 10.0794C19.8435 10.3887 20.1472 10.6094 20.4989 10.6908L25.253 11.7919C26.2321 12.0186 26.6178 13.2059 25.959 13.9649L22.7601 17.65C22.5234 17.9226 22.4074 18.2796 22.4387 18.6393L22.8606 23.5009C22.9475 24.5022 21.9375 25.236 21.0121 24.8439L16.5188 22.9403C16.1864 22.7995 15.811 22.7995 15.4786 22.9403L10.9853 24.8439C10.0599 25.236 9.04996 24.5022 9.13685 23.5009L9.55878 18.6393C9.58999 18.2796 9.474 17.9226 9.23733 17.65L6.0384 13.9649C5.37959 13.2059 5.76536 12.0186 6.74445 11.7919L11.4985 10.6908C11.8502 10.6094 12.1539 10.3887 12.3401 10.0794L14.8563 5.89826Z" fill="#EB00FF"/>
</svg>