<svg width="32" height="32" viewBox="0 0 32 32" fill="none" xmlns="http://www.w3.org/2000/svg">
    <path d="M14.8575 5.89826C15.3757 5.03717 16.6241 5.03717 17.1423 5.89826L19.6586 10.0794C19.8448 10.3887 20.1484 10.6094 20.5002 10.6908L25.2542 11.7919C26.2333 12.0186 26.6191 13.2059 25.9603 13.9649L22.7613 17.65C22.5247 17.9226 22.4087 18.2796 22.4399 18.6393L22.8618 23.5009C22.9487 24.5022 21.9387 25.236 21.0133 24.8439L16.5201 22.9403C16.1876 22.7995 15.8123 22.7995 15.4798 22.9403L10.9865 24.8439C10.0612 25.236 9.05118 24.5022 9.13807 23.5009L9.56 18.6393C9.59121 18.2796 9.47523 17.9226 9.23855 17.65L6.03962 13.9649C5.38081 13.2059 5.76658 12.0186 6.74567 11.7919L11.4997 10.6908C11.8515 10.6094 12.1551 10.3887 12.3413 10.0794L14.8575 5.89826Z" stroke="white" stroke-width="1.8"/>
</svg>
