<svg width="33" height="33" viewBox="0 0 33 33" fill="none" xmlns="http://www.w3.org/2000/svg"><path d="M25.95 0H7.05A7.05 7.05 0 0 0 0 7.05v18.9A7.05 7.05 0 0 0 7.05 33h18.9A7.049 7.049 0 0 0 33 25.95V7.05A7.049 7.049 0 0 0 25.95 0Zm1.4 9.219a3451.6 3451.6 0 0 0-1.721 8.1c-.581 2.725-1.171 5.451-1.744 8.182-.293 1.395-1.016 1.708-2.173.875a248.865 248.865 0 0 1-4.651-3.437c-.295-.224-.436-.166-.671.062-.805.793-1.638 1.56-2.454 2.343-.099.102-.219.18-.351.232-.43.159-.486.117-.45-.328l.33-4.619a.717.717 0 0 1 .258-.511 2031.4 2031.4 0 0 0 8.243-7.455c.414-.375.82-.756 1.228-1.137.093-.086.236-.179.15-.318-.086-.14-.24-.106-.386-.074-.417.095-.735.373-1.073.59-2.9 1.822-5.796 3.65-8.686 5.484l-2.422 1.534a.484.484 0 0 1-.468.07c-1.634-.536-3.273-1.04-4.912-1.554-.372-.117-.805-.23-.856-.67-.051-.485.377-.721.76-.878 1.154-.479 2.32-.93 3.487-1.38 2.302-.889 4.612-1.768 6.92-2.66 2.307-.89 4.638-1.785 6.963-2.682l3.022-1.16c.443-.17.896-.269 1.297.06.401.328.468.818.36 1.33Z" fill="#fff"/></svg>