<svg width="33" height="33" viewBox="0 0 33 33" fill="none" xmlns="http://www.w3.org/2000/svg"><path d="M25.906 0H7.094A7.092 7.092 0 0 0 0 7.094v18.812A7.093 7.093 0 0 0 7.094 33h18.812A7.093 7.093 0 0 0 33 25.906V7.094A7.092 7.092 0 0 0 25.906 0Zm.79 13.624c-2.618 0-4.544-.737-5.956-1.732.011 3.198 0 6.827-.045 9.427-.035 1.727-.493 4.115-2.48 5.678-1.492 1.174-3.275 1.442-4.6 1.442a9.332 9.332 0 0 1-1.797-.169 6.925 6.925 0 0 1-2.742-1.13c-1.283-.893-2.817-2.615-2.817-5.762 0-2.906 1.304-5.17 3.67-6.374a8.317 8.317 0 0 1 3.487-.873v3.97h.019c-.625.032-1.236.199-1.791.488-.606.332-1.413.982-1.413 2.789 0 1.118.333 1.914 1.018 2.434.354.263.76.446 1.19.537l.118.012.045.017c.571.117 2.22.247 3.174-.51.607-.485.928-1.369.952-2.627.111-5.668 0-16.337 0-16.444l3.96-.208v-.013c.146.966.499 1.889 1.033 2.707 1.062 1.595 2.694 2.376 4.974 2.376h.134l.05 3.969-.184-.004Z" fill="#fff"/></svg>