<svg width="33" height="33" viewBox="0 0 33 33" fill="none" xmlns="http://www.w3.org/2000/svg"><path d="M24.986 8.494H9.482c-.226-.006-.226-.007-.226.226v13.568a.204.204 0 0 0 .205.205h3.959c.192 0 .192 0 .192.192.01.875-.019 1.736.017 2.613.643-.557 1.208-1.194 1.823-1.787.269-.268.545-.547.805-.827a.583.583 0 0 1 .47-.195c1.639.005 3.279.005 4.919 0a.352.352 0 0 0 .22-.086c.216-.202.417-.421.628-.629.552-.546 1.106-1.088 1.66-1.633.314-.31.624-.629.938-.938a.292.292 0 0 0 .083-.238V8.685c.008-.191.007-.191-.189-.191Zm-8.703 9.708a84.508 84.508 0 0 0-1.64 0c-.126 0-.16-.043-.158-.163v-5.465c0-.171 0-.18.181-.18h1.586c.177 0 .184.01.184.192v5.453c.012.121-.03.164-.153.163Zm5.449-2.952v2.718c0 .179 0 .183-.176.183h-1.598c-.134 0-.169-.04-.169-.17v-5.41c0-.222 0-.227.23-.229h1.518c.193 0 .195 0 .195.19v2.719Z" fill="#fff"/><path d="M25.906 0H7.092A7.092 7.092 0 0 0 0 7.092v18.816A7.092 7.092 0 0 0 7.092 33h18.814A7.095 7.095 0 0 0 33 25.906V7.094A7.095 7.095 0 0 0 25.906 0Zm1.192 19.949a.293.293 0 0 1-.102.237c-.794.784-1.583 1.573-2.384 2.35-1.048 1.046-2.093 2.1-3.14 3.146a.484.484 0 0 1-.367.17c-1.33-.009-2.657 0-3.987-.009a.38.38 0 0 0-.29.126c-.299.298-.604.588-.902.887-.597.606-1.191 1.215-1.796 1.816a.335.335 0 0 1-.26.108h-2.586c-.18 0-.182 0-.18-.19v-2.493c0-.236 0-.239-.236-.239-1.648 0-3.298-.01-4.945 0-.11 0-.135-.038-.135-.134v-15.08c.003-.158.033-.316.088-.465.318-.86.646-1.714.97-2.572.116-.304.236-.609.34-.918a.177.177 0 0 1 .204-.135c3.257.008 6.515.008 9.773 0v-.006h9.759c.134 0 .17.032.17.17.004 4.407.006 8.818.006 13.23Z" fill="#fff"/></svg>