<svg width="33" height="33" viewBox="0 0 33 33" fill="none" xmlns="http://www.w3.org/2000/svg"><path d="M25.906 0H7.094A7.092 7.092 0 0 0 0 7.094v18.812A7.093 7.093 0 0 0 7.094 33h18.812A7.093 7.093 0 0 0 33 25.906V7.094A7.092 7.092 0 0 0 25.906 0Zm2.44 23.895a2.733 2.733 0 0 1-.523.046c-.79 0-1.58-.013-2.37.008a1.83 1.83 0 0 1-1.46-.608c-.527-.564-1.047-1.132-1.577-1.693a12.332 12.332 0 0 0-1.86-1.644c-.386-.268-.784-.518-1.283-.509-.467 0-.645.155-.655.627-.019.838-.01 1.678-.016 2.517 0 .134 0 .268-.015.402a.752.752 0 0 1-.597.738 4.91 4.91 0 0 1-1.711.134C13.789 23.75 11.767 22.6 10 20.92c-1.099-1.045-1.932-2.297-2.742-3.562-1.186-1.852-2.206-3.79-2.894-5.887a7.647 7.647 0 0 1-.353-1.445c-.07-.563.147-.883.714-.912a31.815 31.815 0 0 1 3.16 0c.487.021.734.357.897.769.279.707.536 1.424.83 2.122.655 1.526 1.42 2.994 2.433 4.32.205.273.435.527.686.759.139.137.303.247.483.323.323.12.574 0 .638-.337.044-.24.064-.483.062-.727 0-1.268.01-2.537 0-3.804 0-.793-.21-1.524-.743-2.137a2.23 2.23 0 0 1-.161-.208c-.156-.215-.252-.444-.134-.709a.66.66 0 0 1 .638-.389c1.444 0 2.887-.01 4.332 0 .46 0 .648.199.71.652.024.174.036.35.036.525v5.183c0 .303-.015.652.31.794.324.143.58-.08.814-.268.805-.67 1.396-1.52 1.96-2.386a22.587 22.587 0 0 0 1.9-3.587c.267-.644.717-.93 1.405-.915.82.016 1.64 0 2.459 0 .939 0 1.176.33.884 1.225-.23.708-.601 1.352-.973 1.993-.772 1.341-1.628 2.615-2.505 3.88-.544.783-.548 1.02.123 1.694 1.073 1.073 2.116 2.162 3.032 3.37a7.5 7.5 0 0 1 .746 1.153c.095.181.162.376.2.577.092.476-.136.82-.602.91Z" fill="#fff"/></svg>