<svg width="146" height="18" viewBox="0 0 146 18" fill="none" xmlns="http://www.w3.org/2000/svg">
    <rect x="0.5" width="18" height="18" rx="9" fill="#FC3F1D"/>
    <path d="M10.7685 14.409H12.6488V3.60901H9.9138C7.1633 3.60901 5.71812 5.02311 5.71812 7.10541C5.71812 8.76815 6.51063 9.74714 7.92473 10.7572L5.46948 14.409H7.50517L10.2401 10.3221L9.29222 9.68498C8.14229 8.908 7.58286 8.30196 7.58286 6.99663C7.58286 5.84671 8.39092 5.06973 9.92934 5.06973H10.7685V14.409Z" fill="white"/>
    <path d="M27.7214 3.962H31.1374C32.3321 3.962 33.2421 4.14867 33.8674 4.522C34.4928 4.89533 34.8054 5.52533 34.8054 6.412C34.8054 6.776 34.7541 7.09333 34.6514 7.364C34.5488 7.62533 34.3994 7.854 34.2034 8.05C34.0168 8.23667 33.7881 8.39067 33.5174 8.512C33.2468 8.63333 32.9481 8.72667 32.6214 8.792C33.4614 8.89467 34.0961 9.12333 34.5254 9.478C34.9548 9.83267 35.1694 10.374 35.1694 11.102C35.1694 11.6247 35.0668 12.0727 34.8614 12.446C34.6561 12.81 34.3714 13.1087 34.0074 13.342C33.6434 13.566 33.2141 13.734 32.7194 13.846C32.2248 13.9487 31.6881 14 31.1094 14H27.7214V3.962ZM29.4154 5.432V8.106H31.2214C31.7814 8.106 32.2341 7.98933 32.5794 7.756C32.9248 7.51333 33.0974 7.13533 33.0974 6.622C33.0974 6.15533 32.9388 5.84267 32.6214 5.684C32.3134 5.516 31.8748 5.432 31.3054 5.432H29.4154ZM29.4154 9.562V12.544H31.2774C31.5948 12.544 31.8841 12.5207 32.1454 12.474C32.4068 12.418 32.6308 12.334 32.8174 12.222C33.0041 12.1007 33.1488 11.9467 33.2514 11.76C33.3541 11.564 33.4054 11.326 33.4054 11.046C33.4054 10.4953 33.2234 10.1127 32.8594 9.898C32.5048 9.674 31.9308 9.562 31.1374 9.562H29.4154Z" fill="black"/>
    <path d="M39.8636 14.14C39.3503 14.14 38.8743 14.056 38.4356 13.888C37.9969 13.72 37.6143 13.4773 37.2876 13.16C36.9703 12.8333 36.7183 12.4367 36.5316 11.97C36.3543 11.5033 36.2656 10.9667 36.2656 10.36C36.2656 9.75333 36.3543 9.21667 36.5316 8.75C36.7183 8.28333 36.9703 7.89133 37.2876 7.574C37.6143 7.24733 37.9969 7.00467 38.4356 6.846C38.8743 6.678 39.3503 6.594 39.8636 6.594C40.3769 6.594 40.8529 6.678 41.2916 6.846C41.7303 7.00467 42.1129 7.24733 42.4396 7.574C42.7663 7.89133 43.0229 8.28333 43.2096 8.75C43.3963 9.21667 43.4896 9.75333 43.4896 10.36C43.4896 10.9667 43.3963 11.5033 43.2096 11.97C43.0229 12.4367 42.7663 12.8333 42.4396 13.16C42.1129 13.4773 41.7303 13.72 41.2916 13.888C40.8529 14.056 40.3769 14.14 39.8636 14.14ZM39.8636 12.782C40.4236 12.782 40.8856 12.586 41.2496 12.194C41.6229 11.802 41.8096 11.1907 41.8096 10.36C41.8096 9.53867 41.6229 8.932 41.2496 8.54C40.8856 8.13867 40.4236 7.938 39.8636 7.938C39.3129 7.938 38.8509 8.13867 38.4776 8.54C38.1136 8.932 37.9316 9.53867 37.9316 10.36C37.9316 11.1907 38.1136 11.802 38.4776 12.194C38.8509 12.586 39.3129 12.782 39.8636 12.782Z" fill="black"/>
    <path d="M48.1244 5.866C47.7324 5.866 47.3917 5.81467 47.1024 5.712C46.8224 5.60933 46.5844 5.46933 46.3884 5.292C46.2017 5.10533 46.0617 4.89066 45.9684 4.648C45.875 4.396 45.8284 4.13 45.8284 3.85H47.2564C47.2564 4.17666 47.331 4.41466 47.4804 4.564C47.639 4.704 47.8537 4.774 48.1244 4.774C48.395 4.774 48.605 4.704 48.7544 4.564C48.9037 4.41466 48.9784 4.17666 48.9784 3.85H50.4204C50.4204 4.13 50.3737 4.396 50.2804 4.648C50.187 4.89066 50.0424 5.10533 49.8464 5.292C49.6597 5.46933 49.4217 5.60933 49.1324 5.712C48.843 5.81467 48.507 5.866 48.1244 5.866ZM46.4584 11.802L49.8184 6.734H51.4144V14H49.8044V8.96L46.4724 14H44.8484V6.734H46.4584V11.802Z" fill="black"/>
    <path d="M56.4909 8.05V14H54.8669V8.05H52.6689V6.734H58.7309V8.05H56.4909Z" fill="black"/>
    <path d="M61.5795 11.802L64.9395 6.734H66.5355V14H64.9255V8.96L61.5935 14H59.9695V6.734H61.5795V11.802Z" fill="black"/>
    <path d="M74.7862 14.14C74.1982 14.14 73.6708 14.056 73.2042 13.888C72.7375 13.7107 72.3408 13.4633 72.0142 13.146C71.6875 12.8193 71.4355 12.4227 71.2582 11.956C71.0808 11.4893 70.9922 10.9573 70.9922 10.36C70.9922 9.772 71.0808 9.24467 71.2582 8.778C71.4355 8.31133 71.6875 7.91933 72.0142 7.602C72.3408 7.27533 72.7422 7.028 73.2182 6.86C73.6942 6.68266 74.2262 6.594 74.8142 6.594C75.3182 6.594 75.7568 6.65 76.1302 6.762C76.5128 6.874 76.8162 7.014 77.0402 7.182V8.526C76.7508 8.33933 76.4335 8.19467 76.0882 8.092C75.7522 7.98933 75.3602 7.938 74.9122 7.938C73.4095 7.938 72.6582 8.74533 72.6582 10.36C72.6582 11.9747 73.3955 12.782 74.8702 12.782C75.3462 12.782 75.7522 12.7307 76.0882 12.628C76.4335 12.516 76.7508 12.376 77.0402 12.208V13.552C76.7975 13.7107 76.4942 13.8507 76.1302 13.972C75.7662 14.084 75.3182 14.14 74.7862 14.14Z" fill="black"/>
    <path d="M81.71 7.112C81.71 6.58 81.8034 6.118 81.99 5.726C82.1767 5.32467 82.438 4.998 82.774 4.746C83.11 4.48467 83.5114 4.28867 83.978 4.158C84.454 4.02733 84.9814 3.962 85.56 3.962H88.822V14H87.114V10.136H85.56L82.998 14H81.024L83.852 9.884C83.124 9.70667 82.5827 9.38467 82.228 8.918C81.8827 8.442 81.71 7.84 81.71 7.112ZM87.114 8.722V5.432H85.546C84.9114 5.432 84.4027 5.558 84.02 5.81C83.6467 6.05267 83.46 6.47267 83.46 7.07C83.46 7.658 83.628 8.08267 83.964 8.344C84.3 8.596 84.776 8.722 85.392 8.722H87.114Z" fill="black"/>
    <path d="M95.4895 10.934H92.4235V14H90.7995V6.734H92.4235V9.618H95.4895V6.734H97.1135V14H95.4895V10.934Z" fill="black"/>
    <path d="M98.7383 12.684C98.953 12.4973 99.121 12.2407 99.2423 11.914C99.373 11.5873 99.4756 11.1813 99.5503 10.696C99.625 10.2013 99.681 9.62733 99.7183 8.974C99.7556 8.32067 99.7883 7.574 99.8163 6.734H105.136V12.684H106.228V16.072H104.814L104.688 14H99.6763L99.5503 16.072H98.1223V12.684H98.7383ZM103.512 12.684V8.05H101.216C101.17 9.198 101.09 10.15 100.978 10.906C100.876 11.6527 100.703 12.2453 100.46 12.684H103.512Z" fill="black"/>
    <path d="M113.364 13.468C113.261 13.5333 113.135 13.608 112.986 13.692C112.836 13.7667 112.659 13.8367 112.454 13.902C112.248 13.9673 112.01 14.0233 111.74 14.07C111.469 14.1167 111.161 14.14 110.816 14.14C109.481 14.14 108.482 13.8087 107.82 13.146C107.166 12.4833 106.84 11.5547 106.84 10.36C106.84 9.772 106.928 9.24467 107.106 8.778C107.283 8.31133 107.53 7.91933 107.848 7.602C108.165 7.27533 108.543 7.028 108.982 6.86C109.42 6.68266 109.901 6.594 110.424 6.594C110.965 6.594 111.45 6.68266 111.88 6.86C112.318 7.03733 112.678 7.30333 112.958 7.658C113.238 8.01267 113.429 8.45133 113.532 8.974C113.644 9.49667 113.648 10.108 113.546 10.808H108.52C108.585 11.4707 108.804 11.97 109.178 12.306C109.551 12.6327 110.134 12.796 110.928 12.796C111.506 12.796 111.987 12.726 112.37 12.586C112.762 12.4367 113.093 12.2827 113.364 12.124V13.468ZM110.424 7.882C109.948 7.882 109.546 8.02667 109.22 8.316C108.893 8.60533 108.678 9.03467 108.576 9.604H111.992C112.01 9.016 111.88 8.582 111.6 8.302C111.32 8.022 110.928 7.882 110.424 7.882Z" fill="black"/>
    <path d="M117.307 11.046H116.677V14H115.053V6.734H116.677V9.73H117.363L119.673 6.734H121.381L118.637 10.234L121.493 14H119.575L117.307 11.046Z" fill="black"/>
    <path d="M125.577 14.14C124.989 14.14 124.462 14.056 123.995 13.888C123.529 13.7107 123.132 13.4633 122.805 13.146C122.479 12.8193 122.226 12.4227 122.049 11.956C121.872 11.4893 121.783 10.9573 121.783 10.36C121.783 9.772 121.872 9.24467 122.049 8.778C122.226 8.31133 122.479 7.91933 122.805 7.602C123.132 7.27533 123.533 7.028 124.009 6.86C124.485 6.68266 125.017 6.594 125.605 6.594C126.109 6.594 126.548 6.65 126.921 6.762C127.304 6.874 127.607 7.014 127.831 7.182V8.526C127.542 8.33933 127.225 8.19467 126.879 8.092C126.543 7.98933 126.151 7.938 125.703 7.938C124.201 7.938 123.449 8.74533 123.449 10.36C123.449 11.9747 124.186 12.782 125.661 12.782C126.137 12.782 126.543 12.7307 126.879 12.628C127.225 12.516 127.542 12.376 127.831 12.208V13.552C127.589 13.7107 127.285 13.8507 126.921 13.972C126.557 14.084 126.109 14.14 125.577 14.14Z" fill="black"/>
    <path d="M134.265 3.962V14H132.571V3.962H134.265Z" fill="black"/>
    <path d="M136.413 3.962H139.801C140.51 3.962 141.168 4.04133 141.775 4.2C142.391 4.35866 142.923 4.62 143.371 4.984C143.828 5.348 144.183 5.82867 144.435 6.426C144.696 7.02333 144.827 7.76067 144.827 8.638C144.827 9.52467 144.696 10.304 144.435 10.976C144.183 11.6387 143.824 12.194 143.357 12.642C142.9 13.09 142.354 13.4307 141.719 13.664C141.094 13.888 140.408 14 139.661 14H136.413V3.962ZM138.107 5.432V12.544H139.717C140.212 12.544 140.66 12.4693 141.061 12.32C141.472 12.1707 141.822 11.942 142.111 11.634C142.41 11.326 142.638 10.934 142.797 10.458C142.965 9.97267 143.049 9.39867 143.049 8.736C143.049 8.08267 142.97 7.546 142.811 7.126C142.652 6.69667 142.428 6.356 142.139 6.104C141.859 5.852 141.523 5.67933 141.131 5.586C140.739 5.48333 140.314 5.432 139.857 5.432H138.107Z" fill="black"/>
</svg>