<svg width="33" height="33" viewBox="0 0 33 33" fill="none" xmlns="http://www.w3.org/2000/svg">
    <path d="M14.5645 19.2469L19.4515 16.4242L14.5645 13.6016V19.2469Z" fill="white"/>
    <path d="M30.6808 2.31921C28.36 0 24.6272 0 17.16 0H15.84C8.37279 0 4.63535 0 2.31921 2.31921C0.00306964 4.63842 0 8.37279 0 15.84V17.16C0 24.6272 0 28.3647 2.31921 30.6808C4.63842 32.9969 8.37279 33 15.84 33H17.16C24.6272 33 28.3647 33 30.6808 30.6808C32.9969 28.3616 33 24.6272 33 17.16V15.84C33 8.37279 33 4.63995 30.6808 2.31921ZM25.4622 20.9512C25.3545 21.351 25.1432 21.7153 24.8498 22.0074C24.5563 22.2996 24.191 22.5091 23.7907 22.615C22.3233 23.0079 16.4401 23.0079 16.4401 23.0079C16.4401 23.0079 10.5569 23.0079 9.08958 22.615C8.69196 22.5067 8.32966 22.2961 8.03881 22.0042C7.74795 21.7123 7.5387 21.3492 7.43191 20.9512C7.03898 19.4838 7.03898 16.4233 7.03898 16.4233C7.03898 16.4233 7.03898 13.3627 7.43191 11.8953C7.53923 11.4966 7.74941 11.133 8.04141 10.841C8.3334 10.549 8.69697 10.3389 9.09572 10.2315C10.5631 9.8386 16.4463 9.8386 16.4463 9.8386C16.4463 9.8386 22.3295 9.8386 23.7968 10.2315C24.1954 10.3388 24.5588 10.549 24.8506 10.841C25.1424 11.133 25.3522 11.4966 25.4591 11.8953C25.852 13.3627 25.852 16.4233 25.852 16.4233C25.852 16.4233 25.852 19.4838 25.4591 20.9512H25.4622Z" fill="white"/>
</svg>
